<svg xmlns="http://www.w3.org/2000/svg" width="132" height="70"><defs><style>.b{fill-rule:evenodd;fill:#f9728b}</style></defs><path d="M17.422 57.719l-.347-.219 1.079-1.995h1.354zm21.426 0L38.5 57.5l1.08-1.995h1.354z"/><path d="M45.562 15.965c1.723-.647 3.007-3.123 3.007-6.086 0-3.455-1.743-6.255-3.895-6.255s-3.9 2.8-3.9 6.255c0 2.966 1.289 5.445 3.013 6.088v.969h-1.976v36.68h6.151v-36.68h-2.4z" fill-rule="evenodd" fill="#cc0001"/><path class="b" d="M29.006 10.136c5.884 7.656 9.436 12.919 11.84 22.661 3.271 13.256 3.9 13.724 7.789 24.1a100.052 100.052 0 01-9.944-23.067c-3.9-14.056-4.986-16.045-9.685-23.694z"/><path class="b" d="M68.771 0S55.193 27.544 51.559 49.667l-8.36-4.552S48.311 28.651 68.771 0z"/><path d="M68.77 0S55.196 27.544 51.558 49.667c0 0 1.765-6.621 10.09-20.639C69.755 15.372 74.093 9.503 74.093 9.503A107.043 107.043 0 0068.77 0z" fill="#fcc3d5" fill-rule="evenodd"/><path d="M40.944 10.26s-6.174 1.454-6.174 3.7 3.7 3.839 9.4 5.7 10.475 3.038 10.475 4.809c0 .731-15.424 11.168-15.424 16.937 0 3.026 2.327 4.357 2.988 5.125 1.223 1.426 2.4 3.785 2.167 5.793 0 0 1.342-3.28-2.338-7.187a4.738 4.738 0 01-1.722-3.649c0-4.125 15.983-14.212 15.983-16.664 0-2.973-6.709-5.814-10.977-7.083-4.367-1.3-8.27-1.986-8.5-2.764s4.933-3.146 7.514-3.432c1.947-.217 2.979-.052 3.349.412a2.041 2.041 0 001.926.844c1.043 0 3.366-.621 3.366-1.622 0-1.13-2.726-1.973-3.861-1.973-1.313 0-.8 1.032-2.671.756a13.138 13.138 0 00-5.501.298z" fill-rule="evenodd"/><path d="M4.148 47.311a3.465 3.465 0 11-3.707 3.457 3.447 3.447 0 013.707-3.457zm0 6.553c1.663 0 2.645-1.463 2.645-3.1s-.982-3.1-2.645-3.1-2.645 1.463-2.645 3.1.982 3.1 2.645 3.1zm11.562.161h-1.8a13.333 13.333 0 01-2.124-2.956 5.138 5.138 0 01-1.152-.19v1.563c0 1.122.07 1.423 1.052 1.5v.12c-.511-.02-1.012-.04-1.523-.04-.491 0-.972.02-1.453.04v-.12c.952-.08 1.022-.381 1.022-1.5v-3.347c0-1.122-.07-1.422-1.022-1.5v-.12c.431.02.852.04 1.283.04.371 0 1.192-.1 1.7-.1 1.162 0 2.515.581 2.515 1.954a1.686 1.686 0 01-1.553 1.613c.561.952 1.773 2.785 3.056 2.926zm-5.08-3.487a2.943 2.943 0 00.932.171c1.032 0 1.643-.451 1.643-1.533a1.5 1.5 0 00-1.573-1.463 3.374 3.374 0 00-.962.11c-.02.641-.04 1.283-.04 2.034zm5.309 3.406c.882-.08.992-.441.992-.762v-4.629c0-.581-.07-.882-.992-.962v-.12c.351.02.691.04 1.042.04.942 0 1.684-.14 2.535-.14a3.637 3.637 0 013.928 3.577c0 2.214-1.733 3.1-3.6 3.1-1.423 0-1.994-.02-2.565-.02-.451 0-.892.02-1.343.04zm1.894-.681a2.286 2.286 0 001.573.541c2.054 0 2.955-1.083 2.955-3.086a3.054 3.054 0 00-3.136-3.106 3.311 3.311 0 00-1.333.28c-.05.692-.06 1.393-.06 2.094zm13.395.762h-1.8a13.323 13.323 0 01-2.124-2.956 5.139 5.139 0 01-1.152-.19v1.563c0 1.122.07 1.423 1.052 1.5v.12c-.511-.02-1.012-.04-1.523-.04-.491 0-.972.02-1.453.04v-.12c.952-.08 1.022-.381 1.022-1.5v-3.347c0-1.122-.07-1.422-1.022-1.5v-.12c.431.02.852.04 1.283.04.371 0 1.192-.1 1.7-.1 1.162 0 2.515.581 2.515 1.954a1.686 1.686 0 01-1.553 1.613c.561.952 1.774 2.785 3.056 2.926zm-5.08-3.487a2.945 2.945 0 00.932.171c1.032 0 1.643-.451 1.643-1.533a1.5 1.5 0 00-1.573-1.463 3.373 3.373 0 00-.962.11c-.02.641-.04 1.283-.04 2.034zm7.205 3.096a6.158 6.158 0 001.112.13 3.713 3.713 0 003.407-1.8l.111.09-.912 2.014c-.23-.02-.471-.04-.7-.04h-3.768c-.391 0-.772.02-1.162.04v-.12c.952-.08 1.012-.381 1.012-1.5v-3.347c0-1.122-.06-1.422-1.032-1.5v-.12c.9.02 1.573.04 2.8.04.932 0 1.874-.02 2.826-.04-.02.311-.02.571-.02.832 0 .29.04.581.06.942l-.13.04a1.937 1.937 0 00-2.194-1.553c-.471 0-.932.02-1.4.06v2.5c.26 0 .511-.02.771-.02.912 0 1.473-.311 1.593-1.283h.12c0 .481-.02.962-.02 1.433s.02.962.02 1.443h-.12c-.231-1.132-.651-1.333-1.723-1.333h-.641zm21.37-6.162c.471.02.841.04 1.4.04.29 0 .571-.02.862-.04.531.712 3.286 3.968 4.1 5.08h.02c0-.4.01-.792.01-1.192v-1.162c0-1.713-.18-2.515-1.252-2.605v-.12c.471.02.942.04 1.412.04.431 0 .872-.02 1.3-.04v.12c-.842.12-1.1.431-1.1 1.242v5.309h-.371a41.551 41.551 0 00-4.579-5.691c-.01.341-.02.681-.02 1.022v1.753c0 2.365.1 2.585 1.343 2.715v.12c-.662-.02-1.323-.04-1.984-.04-.381 0-.762.02-1.142.04v-.12c.922-.12 1.342-.17 1.363-1.092l.12-4.6a3.676 3.676 0 00-1.483-.661zm10.17 3.661l-.662 1.813a.752.752 0 00-.08.27c0 .481.641.681.942.732v.12c-.4-.02-.8-.04-1.212-.04s-.762.02-1.193.04v-.12c.832-.18 1.032-.822 1.313-1.5l1.733-4.258a.68.68 0 00.08-.241.956.956 0 00-.12-.331 3.9 3.9 0 00.872-.3l2.084 5.731a1.222 1.222 0 001.132.9v.12c-.531-.02-1.053-.04-1.593-.04-.732 0-.992.02-1.453.04v-.12c.561-.07.992-.29.992-.661a1.022 1.022 0 00-.09-.311l-.651-1.843zm1.082-2.846l-.982 2.546h1.883zm4.794 5.657c.952-.08 1.022-.381 1.022-1.5v-4.649c-1.393 0-1.844.1-2.344 1.683l-.13-.04.14-1.963c.551.02 1.112.04 1.664.04h2.354c.531 0 1.052-.02 1.583-.04l.14 1.963-.13.04c-.5-1.583-.952-1.683-2.374-1.683v4.649c0 1.122.07 1.423 1.052 1.5v.12c-.511-.02-1.012-.04-1.523-.04-.491 0-.972.02-1.453.04zm5.186 0c.952-.08 1.022-.381 1.022-1.5v-3.347c0-1.122-.07-1.422-1.042-1.5v-.12c.541.02 1.092.04 1.633.04.441 0 .882-.02 1.313-.04v.12c-.932.08-1 .381-1 1.5v3.347c0 1.122.07 1.423 1.052 1.5v.12c-.511-.02-1.012-.04-1.523-.04-.491 0-.972.02-1.453.04zm7.587-6.633a3.465 3.465 0 11-3.707 3.457 3.446 3.446 0 013.707-3.457zm0 6.553c1.663 0 2.645-1.463 2.645-3.1s-.982-3.1-2.645-3.1-2.645 1.463-2.645 3.1.983 3.1 2.645 3.1zm4.308-6.392c.471.02.842.04 1.4.04.291 0 .571-.02.862-.04.531.712 3.286 3.968 4.1 5.08h.02c0-.4.01-.792.01-1.192v-1.162c0-1.713-.18-2.515-1.252-2.605v-.12c.471.02.942.04 1.413.04.431 0 .872-.02 1.3-.04v.12c-.841.12-1.1.431-1.1 1.242v5.309h-.372a41.546 41.546 0 00-4.579-5.691c-.01.341-.02.681-.02 1.022v1.753c0 2.365.1 2.585 1.343 2.715v.12c-.661-.02-1.323-.04-1.984-.04-.381 0-.762.02-1.143.04v-.12c.922-.12 1.343-.17 1.363-1.092l.121-4.6a3.674 3.674 0 00-1.483-.661zm10.17 3.661l-.662 1.813a.751.751 0 00-.08.27c0 .481.641.681.942.732v.12c-.4-.02-.8-.04-1.212-.04s-.762.02-1.193.04v-.12c.832-.18 1.032-.822 1.313-1.5l1.733-4.258a.674.674 0 00.08-.241.954.954 0 00-.12-.331 3.892 3.892 0 00.872-.3l2.084 5.731a1.222 1.222 0 001.132.9v.12c-.531-.02-1.052-.04-1.593-.04-.732 0-.992.02-1.453.04v-.12c.561-.07.992-.29.992-.661a1.021 1.021 0 00-.09-.311l-.654-1.844zm1.082-2.846l-.982 2.546h1.883zm7.386-.695c-1.283.18-1.332.421-1.332 1.233v4.809a5.5 5.5 0 001.041.13c1.573 0 2.275-.631 3.066-1.944h.15l-.771 2.244a35.23 35.23 0 00-1.453-.04h-2.946c-.331 0-.671.02-1 .04v-.12c.872-.08 1.012-.361 1.012-.882v-3.968c0-1.122-.06-1.422-1.012-1.5v-.12c.521.02 1.032.04 1.553.04.561 0 1.132-.02 1.693-.04zm5.715 6.352c.881-.08.992-.441.992-.762v-4.629c0-.581-.07-.882-.992-.962v-.12c.351.02.691.04 1.042.04.942 0 1.683-.14 2.535-.14a3.637 3.637 0 013.928 3.577c0 2.214-1.733 3.1-3.6 3.1-1.423 0-1.994-.02-2.565-.02-.451 0-.892.02-1.342.04zm1.894-.681a2.285 2.285 0 001.573.541c2.054 0 2.956-1.083 2.956-3.086a3.054 3.054 0 00-3.136-3.106 3.312 3.312 0 00-1.333.28c-.05.692-.06 1.393-.06 2.094zm7.961.371a6.163 6.163 0 001.113.13 3.713 3.713 0 003.406-1.8l.111.09-.912 2.014c-.23-.02-.471-.04-.7-.04h-3.767c-.391 0-.771.02-1.162.04v-.12c.952-.08 1.012-.381 1.012-1.5v-3.347c0-1.122-.06-1.422-1.032-1.5v-.12c.9.02 1.573.04 2.8.04.932 0 1.874-.02 2.826-.04-.02.311-.02.571-.02.832 0 .29.04.581.06.942l-.131.04a1.936 1.936 0 00-2.194-1.553c-.471 0-.932.02-1.4.06v2.5c.261 0 .511-.02.772-.02.912 0 1.473-.311 1.593-1.283h.12c0 .481-.02.962-.02 1.433s.02.962.02 1.443h-.12c-.23-1.132-.651-1.333-1.723-1.333h-.652zm9.481-4.259a2.523 2.523 0 00-2.134-1.743c-.762 0-1.3.24-1.3.962 0 1.724 3.9 1.313 3.9 3.747 0 1.3-1.022 1.884-2.244 1.884-.662 0-1.513-.29-1.824-.29a1.249 1.249 0 00-.421.11c-.12-.762-.291-1.493-.461-2.234l.13-.071c.491.922 1.353 2.165 2.555 2.165.781 0 1.483-.321 1.483-1.192 0-1.914-3.9-1.593-3.9-3.677a1.756 1.756 0 011.864-1.723 5.5 5.5 0 011.242.16 5.441 5.441 0 001.173.17 14.229 14.229 0 00.08 1.734zM10.068 60.253l-3.723 9.591h-.953l-3.723-9.77c-.328-.893-.626-1.37-1.668-1.37v-.536l1.7.03h.983l1.638-.03v.536c-.983 0-1.34.119-.983 1.132l2.83 7.834 2.919-7.745c.357-.953.238-1.221-.745-1.221v-.536h.923l1.161.03 1.043-.03v.536c-.717-.001-.925.386-1.402 1.549zm2.532 4.02c0-3.813 2.353-6.136 5.063-6.166a4.572 4.572 0 014.647 4.974c-.03.834-.238.715-.625.715-1.966-.03-5.094 0-7.179.03.03 2.323 1.281 6.851 7.685 4.26l.209.565c-7.06 3.367-9.8-1.131-9.8-4.378zm4.974-5.421c-1.668.06-3.068 1.787-3.068 4.14h3.723c1.847 0 2.294-.149 2.324-.983a3.116 3.116 0 00-2.981-3.157zm8.22 8.311v-8.1h-1.7v-.625c1.34 0 2.2-1.073 2.651-2.622h.744v2.353h3.9v.893h-3.9v7.358c0 1.876-.03 3.515 3.962 1.757l.209.6c-5.36 2.944-5.866-.393-5.866-1.614zm7.987-2.89c0-3.813 2.353-6.136 5.063-6.166a4.572 4.572 0 014.647 4.974c-.03.834-.238.715-.625.715-1.966-.03-5.094 0-7.179.03.03 2.323 1.281 6.851 7.685 4.26l.209.565c-7.06 3.367-9.8-1.131-9.8-4.378zm4.974-5.421c-1.668.06-3.068 1.787-3.068 4.14h3.723c1.847 0 2.294-.149 2.324-.983a3.116 3.116 0 00-2.979-3.157zm17.631 10.842c-3.008.119-4.974-3.843-5.927-4.826a9.209 9.209 0 01-1.638.089v2.77c0 1.191.179 1.4 1.638 1.4v.536l-1.966-.06h-1.191l-1.489.06v-.53c1.221 0 1.34-.179 1.34-1.31v-7.66c0-1.311-.357-1.46-1.34-1.46v-.536l1.728.03 1.549-.06c3.336-.149 5.213.834 5.272 3.306a3.239 3.239 0 01-2.2 3.038c1.638 1.966 3.1 4.409 5.064 4.647v.536zM48.82 58.852v5.3c2.949.089 4.021-.983 3.932-2.681-.089-1.993-1.548-3.006-3.931-2.619zm12.695.924v8.013c0 1.1.06 1.34 1.34 1.34v.536l-1.668-.06h-1.132l-1.609.06v-.536c1.281 0 1.4-.3 1.4-1.31v-7.923c0-.864-.179-1.192-1.4-1.192v-.536l1.609.03h1.132l1.7-.03v.536c-1.044-.001-1.372.208-1.372 1.072zm15.52.566v9.382h-.8c-.923-1.1-7.417-8.042-8.042-9.055v6.136c0 2.025.238 2.323 1.668 2.323v.536l-1.549-.06H67.18l-1.549.06v-.536c1.311 0 1.519-.357 1.519-2.413v-6.076c0-1.609-.328-1.936-1.847-1.936v-.536l1.49.03h1.4c.8 1.013 7.179 7.775 7.775 8.728v-6.642c0-1.222-.387-1.579-1.579-1.579v-.536l1.46.03h1.162l1.43-.03v.536c-1.257-.001-1.406.327-1.406 1.638zm12.355 9.591c-.953 0-1.817-.506-1.817-1.519-4.885 3.455-6.94.447-6.762-1.311.149-1.877 2.323-3.694 6.7-3.694v-2.2c0-1.7-.327-2.353-1.519-2.353-1.817 0-2.949 1.162-2.949 2.323 0 .357-.953.625-1.192.625-.745 0-.477-1.072-.089-1.608a6.539 6.539 0 014.766-2.145 2.409 2.409 0 012.77 2.592v6.426c0 1.073-.03 2.025.864 1.847a2.312 2.312 0 001.1-.536l.328.417a3.529 3.529 0 01-2.2 1.136zm-1.847-5.719c-3.1.03-4.826 1.043-4.855 2.562-.03 1.251.953 3.4 4.855.834zm8.945-4.438v8.013c0 1.1.06 1.34 1.34 1.34v.536l-1.668-.06h-1.132l-1.609.06v-.536c1.281 0 1.4-.3 1.4-1.31v-7.923c0-.864-.179-1.192-1.4-1.192v-.536l1.609.03h1.135l1.7-.03v.536c-1.047-.001-1.375.208-1.375 1.072zm14.356 9.918c-3.009.119-4.975-3.843-5.927-4.826a9.213 9.213 0 01-1.639.089v2.77c0 1.191.179 1.4 1.639 1.4v.536l-1.966-.06h-1.192l-1.489.06v-.53c1.221 0 1.34-.179 1.34-1.31v-7.66c0-1.311-.357-1.46-1.34-1.46v-.536l1.728.03 1.549-.06c3.336-.149 5.213.834 5.272 3.306a3.239 3.239 0 01-2.2 3.038c1.638 1.966 3.1 4.409 5.064 4.647v.536zm-7.566-10.842v5.3c2.949.089 4.021-.983 3.932-2.681-.088-1.993-1.55-3.006-3.932-2.619zm9.473 5.421c0-3.813 2.353-6.136 5.064-6.166a4.572 4.572 0 014.646 4.974c-.03.834-.238.715-.626.715-1.966-.03-5.093 0-7.179.03.03 2.323 1.281 6.851 7.685 4.26l.209.565c-7.053 3.367-9.799-1.131-9.799-4.378zm4.975-5.421c-1.668.06-3.068 1.787-3.068 4.14h3.724c1.846 0 2.293-.149 2.323-.983a3.116 3.116 0 00-2.974-3.157zm7.302 10.482l-.089-2.353h.6c.179 1.7.953 2.293 2.412 2.353a2.31 2.31 0 002.264-2.74c-.268-.983-.893-1.49-2.2-2.145-1.7-.864-2.8-1.817-2.889-3.4-.119-1.966 1.579-3.873 6.166-2.889l.149 2.085h-.6c-.268-1.34-.834-1.579-1.906-1.7a2.112 2.112 0 00-2.145 1.013c-.685 1.549.6 2.383 2.2 3.276 2.681 1.49 3.039 2.621 3.009 3.872-.09 2.035-3.069 4.388-6.971 2.628z"/></svg>